<svg width="158" height="44" viewBox="0 0 158 44" fill="none" xmlns="http://www.w3.org/2000/svg">
<rect width="158" height="44" fill="#F5F5F5"/>
<g clip-path="url(#clip0_0_1)">
<rect width="1280" height="4504" transform="translate(-53 -10)" fill="white"/>
<path fill-rule="evenodd" clip-rule="evenodd" d="M21.8973 4.49974C30.9901 5.239 38.1377 12.7917 38.1377 22.0006C38.1377 31.2095 30.9901 38.7622 21.8973 39.5015C30.6683 38.6043 36.9146 30.2345 36.9632 22.0006C37.0052 14.9821 31.2301 6.80526 21.8973 5.84225C38.4772 8.30791 39.2569 32.3469 21.8973 33.6456V39.5004C30.2447 38.5758 37.4332 31.2084 37.4332 21.9995C37.4332 12.7906 30.4593 6.09452 21.8973 5.1699V4.49974ZM21.8973 5.84335C38.2317 9.75461 38.1045 31.3587 21.8973 33.1092C26.3884 32.5312 30.0512 29.3373 31.2821 25.1189H21.905V18.8187H31.2633C30.0147 14.6322 26.3663 11.4668 21.8973 10.892V5.84335ZM19.0805 39.5114C9.9323 38.827 2.72391 31.249 2.72391 22.0006C2.72391 12.7533 9.93009 5.17648 19.0772 4.49097C10.3072 5.38926 4.06318 13.7591 4.01341 21.9908C3.97139 29.0093 9.74651 37.1861 19.0794 38.1491V38.8204C10.5184 37.8958 3.5434 31.1997 3.5434 21.9908C3.5434 12.7829 10.7297 5.41559 19.0761 4.49097H19.0783V10.1879C1.71863 11.4865 2.4983 35.6835 19.0783 38.1491V39.5114H19.0805ZM19.0805 10.7253C2.87321 12.4758 2.74492 34.2379 19.0805 38.1491V33.1235C13.479 32.4621 9.13604 27.7348 9.13604 22.0006C9.13604 16.2664 13.479 11.5402 19.0805 10.8778V10.7253Z" fill="#387C43"/>
<path fill-rule="evenodd" clip-rule="evenodd" d="M48.6167 16.2615V18.8943C48.6167 20.2122 48.033 20.6844 47.1063 20.6844C46.1797 20.6844 45.596 20.2093 45.596 18.8943V8.94279C45.596 7.62787 46.1797 7.12581 47.1063 7.12581C48.033 7.12581 48.6167 7.62489 48.6167 8.94279V10.9182H51.3727V9.12808C51.3727 6.17847 49.8894 4.49298 47.0251 4.49298C44.1638 4.49298 42.6775 6.17847 42.6775 9.12808V18.712C42.6775 21.6616 44.1608 23.3471 47.0251 23.3471C49.8864 23.3471 51.3727 21.6616 51.3727 18.712V16.2645H48.6167V16.2615ZM52.2994 7.335H55.3472V23.132H58.2626V7.335H61.3104V4.70218H52.2994V7.335ZM69.0518 4.70218H64.7855L61.8159 23.132H64.4936L64.9961 19.7879H68.5734L69.0759 23.132H72.0184L69.0518 4.70218ZM66.7712 7.96855L68.1763 17.2895H65.3662L66.7712 7.96855ZM72.5509 23.1589H73.0022C75.9177 23.1589 77.1362 21.8439 77.2445 18.473L77.5634 7.335H80.1088V23.132H83.0784V4.70218H74.8345L74.3562 18.6284C74.302 20.3407 73.8778 20.5231 72.5539 20.5231V23.1589H72.5509ZM89.5952 23.132C92.5107 23.132 93.9428 21.5272 93.9428 18.5776V16.1808C93.9428 13.2312 92.5107 11.6264 89.5952 11.6264H88.2172V4.70218H85.3018V23.132H89.5952ZM88.2172 20.4991V14.2592H89.5952C90.5219 14.2592 91.0274 14.6806 91.0274 15.9955V18.7599C91.0274 20.0778 90.5249 20.4961 89.5952 20.4961H88.2172V20.4991ZM95.3208 16.5245V18.7091C95.3208 21.6587 96.8041 23.3441 99.6684 23.3441C102.533 23.3441 104.016 21.6587 104.016 18.7091V9.12508C104.016 6.17548 102.533 4.48999 99.6684 4.48999C96.8041 4.48999 95.375 6.17548 95.375 9.12508V10.6791H98.0798V8.94279C98.0798 7.62787 98.6635 7.12581 99.5902 7.12581C100.517 7.12581 101.101 7.62489 101.101 8.94279V12.2869H98.4228V14.9197H101.101V18.8943C101.101 20.2122 100.517 20.6844 99.5902 20.6844C98.6635 20.6844 98.0798 20.2093 98.0798 18.8943V16.5245H95.3208ZM108.839 15.2335H112.151V23.132H115.121V4.70218H112.151V12.6007H108.839V4.70218H105.923V23.132H108.839V15.2335ZM120.158 7.335H125.194V4.70218H117.242V23.132H125.194V20.4991H120.158V15.102H124.159V12.4692H120.158V7.335ZM131.29 4.70218H126.996V23.132H129.912V16.2077H131.29C134.205 16.2077 135.637 14.6029 135.637 11.6533V9.25658C135.637 6.30996 134.205 4.70218 131.29 4.70218ZM131.29 7.335C132.217 7.335 132.722 7.75637 132.722 9.07129V11.8356C132.722 13.1505 132.22 13.5719 131.29 13.5719H129.912V7.33201H131.29V7.335ZM139.931 23.132V7.335H144.703V4.70218H137.015V23.132H139.931ZM149.339 8.94279C149.339 7.62787 149.923 7.12581 150.849 7.12581C151.776 7.12581 152.36 7.62489 152.36 8.94279V18.8943C152.36 20.2122 151.776 20.7113 150.849 20.7113C149.923 20.7113 149.339 20.2122 149.339 18.8943V8.94279ZM146.424 18.7091C146.424 21.6587 147.988 23.3441 150.849 23.3441C153.711 23.3441 155.275 21.6587 155.275 18.7091V9.12508C155.275 6.17548 153.711 4.48999 150.849 4.48999C147.988 4.48999 146.424 6.17548 146.424 9.12508V18.7091Z" fill="#387C43"/>
<path fill-rule="evenodd" clip-rule="evenodd" d="M93.1084 28.7349H91.3266L90.5521 32.4135L90.1477 34.9112L89.6212 32.3984L88.6902 28.7349H87L89.3579 37.0127L89.3426 37.1032C89.2015 37.8842 88.7055 38.0389 87.8394 37.9786V39.4802C90.2125 39.6349 90.8764 38.669 91.2808 36.7372L93.1084 28.7349ZM96.3323 28.7349H93.8218V39.4651H95.5273V35.4318H96.3323C98.0378 35.4318 98.8733 34.4961 98.8733 32.7794V31.3835C98.8771 29.6705 98.0378 28.7349 96.3323 28.7349ZM96.3323 30.2667C96.8741 30.2667 97.1679 30.5119 97.1679 31.2778V32.8889C97.1679 33.6548 96.8741 33.9 96.3323 33.9H95.5273V30.2667H96.3323ZM103.448 28.7349H100.953L99.2167 39.4651H100.781L101.075 37.5182H103.169L103.463 39.4651H105.184L103.448 28.7349ZM102.116 30.6364L102.937 36.0619H101.292L102.116 30.6364ZM105.497 39.4802H105.76C107.465 39.4802 108.179 38.7143 108.24 36.7524L108.427 30.2667H109.915V39.4651H111.651V28.7349H106.828L106.55 36.8429C106.519 37.839 106.271 37.9484 105.497 37.9484V39.4802Z" fill="#979897"/>
<rect x="117" y="33.7705" width="38" height="0.993249" fill="#979897"/>
<rect x="43" y="33.7705" width="38" height="0.993249" fill="#979897"/>
<path fill-rule="evenodd" clip-rule="evenodd" d="M19.0854 39.4902C9.99252 38.751 2.84496 31.1983 2.84496 21.9894C2.84495 12.7804 9.99252 5.22773 19.0854 4.48847L19.0854 10.3444L19.0854 4.48957C10.7379 5.41419 3.54943 12.7815 3.54943 21.9905C3.54943 31.1994 10.5234 37.8955 19.0854 38.8201L19.0854 39.4902ZM19.0854 38.1466C2.75095 34.2354 2.87813 12.6313 19.0854 10.8807C14.5943 11.4588 10.9314 14.6527 9.70056 18.8711C9.70056 18.8711 9.12064 20.0762 9.12064 21.9096C9.12064 23.7429 9.71936 25.1712 9.71936 25.1712C10.9679 29.3578 14.6164 32.5232 19.0854 33.098L19.0854 38.1466Z" fill="#B7B7B7"/>
<path fill-rule="evenodd" clip-rule="evenodd" d="M21.8985 4.47363C30.9914 5.21289 38.1389 12.7656 38.1389 21.9745C38.1389 31.1834 30.9914 38.7361 21.8985 39.4754V33.6195V39.4743C30.246 38.5497 37.4344 31.1823 37.4344 21.9734C37.4344 12.7645 30.4606 6.06841 21.8985 5.14379V4.47363ZM21.8985 5.81724C38.233 9.7285 38.1058 31.3326 21.8985 33.0831C26.3897 32.5051 30.0524 29.3111 31.2833 25.0928H21.9063V18.7926H31.2645C30.0159 14.606 26.3675 11.4406 21.8985 10.8659V5.81724Z" fill="#B7B7B7"/>
</g>
<defs>
<clipPath id="clip0_0_1">
<rect width="1280" height="4504" fill="white" transform="translate(-53 -10)"/>
</clipPath>
</defs>
</svg>
