<svg width="18" height="18" viewBox="0 0 18 18" fill="none" xmlns="http://www.w3.org/2000/svg">
<g clip-path="url(#clip0_108_465)">
<path d="M9.00004 10.1387C3.5917 10.1387 0.613159 12.6972 0.613159 17.3431C0.613159 17.7059 0.907241 18 1.27009 18H16.7299C17.0928 18 17.3869 17.7059 17.3869 17.3431C17.3869 12.6974 14.4084 10.1387 9.00004 10.1387ZM1.95092 16.6861C2.20932 13.2125 4.57755 11.4526 9.00004 11.4526C13.4225 11.4526 15.7908 13.2125 16.0494 16.6861H1.95092Z" fill="black"/>
<path d="M8.99999 0C6.51567 0 4.64233 1.91102 4.64233 4.44505C4.64233 7.05329 6.59716 9.17497 8.99999 9.17497C11.4028 9.17497 13.3576 7.05329 13.3576 4.44526C13.3576 1.91102 11.4843 0 8.99999 0ZM8.99999 7.86132C7.32152 7.86132 5.9562 6.3289 5.9562 4.44526C5.9562 2.63081 7.23634 1.31386 8.99999 1.31386C10.7354 1.31386 12.0438 2.65992 12.0438 4.44526C12.0438 6.3289 10.6785 7.86132 8.99999 7.86132Z" fill="black"/>
</g>
<defs>
<clipPath id="clip0_108_465">
<rect width="18" height="18" fill="white"/>
</clipPath>
</defs>
</svg>
