<svg width="26" height="26" viewBox="0 0 26 26" fill="none" xmlns="http://www.w3.org/2000/svg">
<rect width="26" height="26" fill="#F5F5F5"/>
<g clip-path="url(#clip0_0_1)">
<rect width="1280" height="4504" transform="translate(-1186 -91)" fill="white"/>
<g clip-path="url(#clip1_0_1)">
<path d="M24.9318 5.42369H4.60293L4.30075 2.0573C4.25133 1.50678 3.78995 1.08496 3.23724 1.08496H1.06778C0.478059 1.08496 0 1.56302 0 2.15274C0 2.74246 0.478059 3.22051 1.06778 3.22051H2.26104C2.91315 10.4856 1.22779 -8.2919 3.48914 16.9027C3.57629 17.8889 4.10911 18.9589 5.02699 19.686C3.37209 21.7994 4.88416 24.915 7.57613 24.915C9.81043 24.915 11.3863 22.6866 10.6201 20.5761H16.4642C15.699 22.6839 17.2714 24.915 19.5082 24.915C21.2932 24.915 22.7454 23.4628 22.7454 21.6778C22.7454 19.8928 21.2932 18.4405 19.5082 18.4405H7.58335C6.77225 18.4405 6.06543 17.9512 5.76035 17.2382L22.8248 16.2353C23.2907 16.208 23.6849 15.8811 23.7981 15.4284L25.9677 6.75043C26.1359 6.07753 25.6265 5.42369 24.9318 5.42369V5.42369ZM7.57613 22.7795C6.96872 22.7795 6.47449 22.2853 6.47449 21.6778C6.47449 21.0703 6.96872 20.5761 7.57613 20.5761C8.18359 20.5761 8.67782 21.0703 8.67782 21.6778C8.67782 22.2853 8.18359 22.7795 7.57613 22.7795ZM19.5081 22.7795C18.9007 22.7795 18.4064 22.2853 18.4064 21.6778C18.4064 21.0703 18.9007 20.5761 19.5081 20.5761C20.1156 20.5761 20.6098 21.0703 20.6098 21.6778C20.6098 22.2853 20.1156 22.7795 19.5081 22.7795ZM21.9165 14.1495L5.47291 15.1158L4.79462 7.55919H23.5642L21.9165 14.1495Z" fill="black"/>
</g>
<path d="M29.2598 0.286133C29.2598 0.905924 29.1162 1.42773 28.8291 1.85156C28.542 2.27539 28.1501 2.59668 27.6533 2.81543C27.1611 3.02962 26.6051 3.13672 25.9854 3.13672C25.3656 3.13672 24.8073 3.02962 24.3105 2.81543C23.8138 2.59668 23.4219 2.27539 23.1348 1.85156C22.8477 1.42773 22.7041 0.905924 22.7041 0.286133C22.7041 -0.124023 22.7839 -0.495443 22.9434 -0.828125C23.1029 -1.16536 23.3285 -1.45475 23.6201 -1.69629C23.9163 -1.94238 24.2627 -2.13151 24.6592 -2.26367C25.0602 -2.39583 25.4977 -2.46191 25.9717 -2.46191C26.6006 -2.46191 27.1634 -2.3457 27.6602 -2.11328C28.1569 -1.88086 28.5465 -1.55957 28.8291 -1.14941C29.1162 -0.739258 29.2598 -0.260742 29.2598 0.286133ZM27.6055 0.204102C27.6055 -0.128581 27.5371 -0.420247 27.4004 -0.670898C27.2637 -0.921549 27.0723 -1.11523 26.8262 -1.25195C26.5801 -1.38867 26.2952 -1.45703 25.9717 -1.45703C25.6436 -1.45703 25.3587 -1.38867 25.1172 -1.25195C24.8757 -1.11523 24.6865 -0.921549 24.5498 -0.670898C24.4176 -0.420247 24.3516 -0.128581 24.3516 0.204102C24.3516 0.541341 24.4176 0.833008 24.5498 1.0791C24.682 1.32064 24.8711 1.50521 25.1172 1.63281C25.3633 1.76042 25.6527 1.82422 25.9854 1.82422C26.318 1.82422 26.6051 1.76042 26.8467 1.63281C27.0882 1.50521 27.2751 1.32064 27.4072 1.0791C27.5394 0.833008 27.6055 0.541341 27.6055 0.204102ZM29.0342 -4.33496C29.0342 -3.83822 28.902 -3.39616 28.6377 -3.00879C28.3779 -2.62142 28.0179 -2.31608 27.5576 -2.09277C27.0973 -1.87402 26.5732 -1.76465 25.9854 -1.76465C25.3929 -1.76465 24.8643 -1.87402 24.3994 -2.09277C23.9391 -2.31608 23.5768 -2.62142 23.3125 -3.00879C23.0527 -3.39616 22.9229 -3.83822 22.9229 -4.33496C22.9229 -4.92741 23.0527 -5.42643 23.3125 -5.83203C23.5768 -6.24219 23.9391 -6.55436 24.3994 -6.76855C24.8597 -6.98275 25.3861 -7.08984 25.9785 -7.08984C26.571 -7.08984 27.0973 -6.98275 27.5576 -6.76855C28.0179 -6.55436 28.3779 -6.24219 28.6377 -5.83203C28.902 -5.42643 29.0342 -4.92741 29.0342 -4.33496ZM27.3867 -4.28027C27.3867 -4.5765 27.3275 -4.83626 27.209 -5.05957C27.0951 -5.28743 26.9333 -5.46517 26.7236 -5.59277C26.514 -5.72038 26.2656 -5.78418 25.9785 -5.78418C25.6914 -5.78418 25.443 -5.72266 25.2334 -5.59961C25.0238 -5.47656 24.862 -5.30339 24.748 -5.08008C24.6341 -4.85677 24.5771 -4.59017 24.5771 -4.28027C24.5771 -3.97493 24.6341 -3.70833 24.748 -3.48047C24.862 -3.25716 25.0238 -3.08171 25.2334 -2.9541C25.4476 -2.8265 25.6982 -2.7627 25.9854 -2.7627C26.2725 -2.7627 26.5208 -2.8265 26.7305 -2.9541C26.9401 -3.08171 27.1019 -3.25716 27.2158 -3.48047C27.3298 -3.70833 27.3867 -3.97493 27.3867 -4.28027Z" fill="white"/>
</g>
<defs>
<clipPath id="clip0_0_1">
<rect width="1280" height="4504" fill="white" transform="translate(-1186 -91)"/>
</clipPath>
<clipPath id="clip1_0_1">
<rect width="26" height="26" fill="white"/>
</clipPath>
</defs>
</svg>
